<svg width="1830" height="1830" viewBox="0 0 1830 1830" fill="none" xmlns="http://www.w3.org/2000/svg">
<rect width="610" height="610" fill="#13429A" transform="scale(3)"/>
<rect width="610" height="610" transform="scale(3)" fill="url(#paint0_radial)"/>
<path fill-rule="evenodd" clip-rule="evenodd" d="M0 0V275.636L106.821 169.599L83.2054 146.264L32.649 196.021V78.3748L231.664 275.636V0L199.039 31.9815V196.021L0 0Z" transform="translate(567 396) scale(3)" fill="white"/>
<path d="M20.958 10.6V31.768L8.904 10.6H3.948V40H8.568V18.916L20.622 40H25.578V10.6H20.958ZM68.7972 10.6L63.4212 33.448L57.5832 13.708H53.3832L47.5452 33.448L42.1692 10.6H37.2972L45.0672 40H49.7712L55.4832 21.352L61.1952 40H65.8992L73.6692 10.6H68.7972ZM84.5675 40H89.1875V26.476H101.116V40H105.736V10.6H101.116V22.108H89.1875V10.6H84.5675V40ZM126.55 10.6L116.344 40H121.048L123.484 32.692H133.984L136.42 40H141.124L130.918 10.6H126.55ZM128.734 16.438L132.598 28.324H124.87L128.734 16.438ZM175.463 19.168C173.951 13.624 169.835 10.264 163.577 10.264C156.479 10.264 149.969 15.346 149.969 25.3C149.969 35.254 156.479 40.336 163.577 40.336C169.835 40.336 173.951 36.976 175.463 31.432L171.095 30.34C169.625 34.078 167.567 35.968 163.577 35.968C158.621 35.968 154.673 32.482 154.673 25.3C154.673 18.118 158.621 14.632 163.577 14.632C167.567 14.632 169.625 16.522 171.095 20.26L175.463 19.168ZM187.286 10.6V40H191.906V25.594L203.078 40H209L196.19 23.746L208.034 10.6H202.406L191.906 21.898V10.6H187.286ZM235.292 15.22C233.738 12.448 231.218 10.264 227.186 10.264C222.902 10.264 219.5 13.54 219.5 17.992C219.5 27.064 232.016 25.804 232.016 31.558C232.016 34.162 230.168 35.968 227.522 35.968C224.162 35.968 222.44 33.028 221.6 29.752L217.82 32.146C218.87 36.85 222.356 40.336 227.522 40.336C232.814 40.336 236.72 36.766 236.72 31.39C236.72 22.318 224.12 23.452 224.12 17.656C224.12 15.934 225.296 14.464 227.186 14.464C228.908 14.464 230.378 15.472 231.554 17.698L235.292 15.22Z" transform="translate(552 1275) scale(3)" fill="white"/>
<defs>
<radialGradient id="paint0_radial" cx="0.5" cy="0.5" r="0.5" gradientUnits="userSpaceOnUse" gradientTransform="matrix(-149 1163 -1329.16 -170.287 1098.08 -367.856)">
<stop stop-color="#6FCF97"/>
<stop offset="1" stop-color="#023D73"/>
<stop offset="1" stop-color="#219653"/>
</radialGradient>
</defs>
</svg>
